# xmcd
#
# Track frame offsets: 
#        150
#        18015
#        32553
#        47472
#        63521
#        79944
#        92598
#        111784
#        124312
#        139795
#        153057
#        167032
#
# Disc length: 2506 seconds
#
# Revision: 0
# Processed by: cddbd v1.5.2PL0 Copyright (c) Steve Scherf et al.
# Submitted via: ExactAudioCopyFreeDBPlugin 1.0
#
DISCID=8c09c80c
DTITLE=Sara Storer - Silos
DYEAR=2016
DGENRE=Country
TTITLE0=My Diamond
TTITLE1=Purple Cockies
TTITLE2=Dandelions
TTITLE3=Colours Fade
TTITLE4=The Ghost
TTITLE5=Here I Go Again
TTITLE6=Amazing Night
TTITLE7=Ramshackle and Wood
TTITLE8=I Wonder Joe
TTITLE9=Mascara and Song
TTITLE10=The Ruining
TTITLE11=It Don't Mean Jack
EXTD=
EXTT0=
EXTT1=
EXTT2=
EXTT3=
EXTT4=
EXTT5=
EXTT6=
EXTT7=
EXTT8=
EXTT9=
EXTT10=
EXTT11=
PLAYORDER=
